<svg width="16" height="16" viewBox="0 0 16 16" fill="none" xmlns="http://www.w3.org/2000/svg">
<path d="M13.5453 2.65469L8.23594 0.845312C8.17187 0.823437 8.08594 0.8125 8 0.8125C7.91406 0.8125 7.82812 0.823437 7.76406 0.845312L2.45469 2.65469C2.325 2.69844 2.21875 2.84844 2.21875 2.98594V10.5234C2.21875 10.6609 2.30781 10.8422 2.41563 10.9281L7.80156 15.125C7.85625 15.1672 7.92656 15.1891 7.99844 15.1891C8.07031 15.1891 8.14219 15.1672 8.19531 15.125L13.5813 10.9281C13.6891 10.8438 13.7781 10.6625 13.7781 10.5234V2.98594C13.7812 2.84844 13.675 2.7 13.5453 2.65469ZM10.1297 5.2L8.75937 7.71719H9.47344C9.55937 7.71719 9.62969 7.7875 9.62969 7.87344V8.20625C9.62969 8.29219 9.55937 8.3625 9.47344 8.3625H8.48281V8.82656H9.47344C9.55937 8.82656 9.62969 8.89688 9.62969 8.98281V9.31563C9.62969 9.40156 9.55937 9.47188 9.47344 9.47188H8.48281V10.2812C8.48281 10.3672 8.4125 10.4375 8.32656 10.4375H7.68125C7.59531 10.4375 7.525 10.3672 7.525 10.2812V9.47188H6.53906C6.45312 9.47188 6.38281 9.40156 6.38281 9.31563V8.98281C6.38281 8.89688 6.45312 8.82656 6.53906 8.82656H7.525V8.3625H6.53906C6.45312 8.3625 6.38281 8.29219 6.38281 8.20625V7.87344C6.38281 7.7875 6.45312 7.71719 6.53906 7.71719H7.24531L5.87031 5.2C5.82969 5.125 5.85625 5.02969 5.93281 4.9875C5.95625 4.975 5.98125 4.96875 6.00781 4.96875H6.72656C6.78594 4.96875 6.83906 5.00156 6.86562 5.05469L8.00469 7.30937L9.14844 5.05469C9.16142 5.02892 9.18129 5.00725 9.20583 4.99208C9.23038 4.97691 9.25865 4.96884 9.2875 4.96875H9.99063C10.0766 4.96875 10.1469 5.03906 10.1469 5.125C10.1484 5.15156 10.1422 5.17656 10.1297 5.2Z" fill="#72BF8C"/>
</svg>
