<svg width="16" height="16" viewBox="0 0 16 16" fill="none" xmlns="http://www.w3.org/2000/svg">
<path d="M13.8422 7.66097C13.8984 7.47347 13.9266 7.27972 13.9266 7.08285C13.9266 6.64066 13.7812 6.21566 13.5188 5.86879C13.575 5.68129 13.6031 5.48754 13.6031 5.29066C13.6031 4.84847 13.4578 4.42347 13.1953 4.0766C13.2516 3.8891 13.2797 3.69535 13.2797 3.49847C13.2797 2.69222 12.8 1.96566 12.0562 1.64847C11.9255 1.59211 11.7845 1.56339 11.6422 1.5641H2.25C1.97344 1.5641 1.75 1.78754 1.75 2.0641V7.7516C1.75 8.02816 1.97344 8.2516 2.25 8.2516H4.27031L5.61094 13.1078C5.82656 13.8907 6.54531 14.4375 7.35781 14.4375C7.82188 14.4375 8.25469 14.2532 8.575 13.9157C8.89531 13.5797 9.05937 13.1391 9.03594 12.675L8.94219 10.7547H12.6906C12.8797 10.7547 13.0641 10.7047 13.2266 10.6094C13.8578 10.2422 14.25 9.5766 14.25 8.87504C14.25 8.43285 14.1047 8.00785 13.8422 7.66097ZM2.875 7.12504V2.68754H4.14062V7.12504H2.875ZM12.675 9.63129H7.7625L7.9125 12.7313C7.92188 12.9172 7.83906 13.0922 7.68437 13.2078C7.58906 13.2782 7.47188 13.3141 7.35469 13.3125C7.20497 13.3111 7.05977 13.2611 6.94087 13.1701C6.82198 13.0791 6.73581 12.952 6.69531 12.8078L5.14062 7.17504V2.68754H11.6313C11.7874 2.75753 11.9201 2.87116 12.0132 3.01474C12.1063 3.15833 12.156 3.32576 12.1562 3.49691C12.1562 3.64847 12.1203 3.79222 12.0484 3.92347L11.8313 4.32035L12.1734 4.61722C12.2698 4.70064 12.347 4.80383 12.3998 4.91978C12.4527 5.03572 12.4799 5.16168 12.4797 5.2891C12.4797 5.44066 12.4437 5.58441 12.3719 5.71566L12.1547 6.11254L12.4969 6.40941C12.5932 6.49283 12.6704 6.59602 12.7232 6.71196C12.7761 6.8279 12.8033 6.95387 12.8031 7.08129C12.8031 7.23285 12.7672 7.3766 12.6953 7.50785L12.4766 7.90629L12.8188 8.20316C12.9151 8.28658 12.9923 8.38977 13.0451 8.50571C13.098 8.62165 13.1252 8.74762 13.125 8.87504C13.125 9.17347 12.9531 9.46097 12.675 9.63129Z" fill="#78787F"/>
</svg>
