<svg width="18" height="18" viewBox="0 0 18 18" fill="none" xmlns="http://www.w3.org/2000/svg">
<path d="M15.4688 1.96875H2.53125C2.22012 1.96875 1.96875 2.22012 1.96875 2.53125V15.4688C1.96875 15.7799 2.22012 16.0312 2.53125 16.0312H15.4688C15.7799 16.0312 16.0312 15.7799 16.0312 15.4688V2.53125C16.0312 2.22012 15.7799 1.96875 15.4688 1.96875ZM13.8445 6.07324H12.7213C11.8406 6.07324 11.6701 6.4916 11.6701 7.10684V8.46211H13.7725L13.4982 10.5838H11.6701V16.0312H9.47813V10.5855H7.64473V8.46211H9.47813V6.89766C9.47813 5.08184 10.5873 4.09219 12.208 4.09219C12.985 4.09219 13.6512 4.1502 13.8463 4.17656V6.07324H13.8445Z" fill="white"/>
</svg>
