<svg width="18" height="18" viewBox="0 0 18 18" fill="none" xmlns="http://www.w3.org/2000/svg">
<path d="M8.99996 6.65672C7.70973 6.65672 6.6568 7.70965 6.6568 8.99989C6.6568 10.2901 7.70973 11.3431 8.99996 11.3431C10.2902 11.3431 11.3431 10.2901 11.3431 8.99989C11.3431 7.70965 10.2902 6.65672 8.99996 6.65672ZM16.0277 8.99989C16.0277 8.02958 16.0365 7.06805 15.982 6.0995C15.9275 4.9745 15.6709 3.97606 14.8482 3.1534C14.0238 2.32899 13.0271 2.07411 11.9021 2.01961C10.9318 1.96512 9.97027 1.97391 9.00172 1.97391C8.03141 1.97391 7.06988 1.96512 6.10133 2.01961C4.97633 2.07411 3.97789 2.33075 3.15523 3.1534C2.33082 3.97782 2.07594 4.9745 2.02145 6.0995C1.96695 7.06981 1.97574 8.03133 1.97574 8.99989C1.97574 9.96844 1.96695 10.9317 2.02145 11.9003C2.07594 13.0253 2.33258 14.0237 3.15523 14.8464C3.97965 15.6708 4.97633 15.9257 6.10133 15.9802C7.07164 16.0347 8.03316 16.0259 9.00172 16.0259C9.97203 16.0259 10.9336 16.0347 11.9021 15.9802C13.0271 15.9257 14.0255 15.669 14.8482 14.8464C15.6726 14.022 15.9275 13.0253 15.982 11.9003C16.0382 10.9317 16.0277 9.9702 16.0277 8.99989ZM8.99996 12.6052C7.00484 12.6052 5.39469 10.995 5.39469 8.99989C5.39469 7.00477 7.00484 5.39461 8.99996 5.39461C10.9951 5.39461 12.6052 7.00477 12.6052 8.99989C12.6052 10.995 10.9951 12.6052 8.99996 12.6052ZM12.7529 6.08895C12.2871 6.08895 11.9109 5.71278 11.9109 5.24696C11.9109 4.78114 12.2871 4.40497 12.7529 4.40497C13.2187 4.40497 13.5949 4.78114 13.5949 5.24696C13.4347 5.15431 13.3095 5.0114 13.2388 4.84038C13.168 4.66936 13.1557 4.47979 13.2037 4.30104C13.2516 4.1223 13.3572 3.96437 13.5041 3.85174C13.6509 3.7391 13.8308 3.67805 14.0159 3.67805C14.2009 3.67805 14.3808 3.7391 14.5277 3.85174C14.6745 3.96437 14.7801 4.1223 14.8281 4.30104C14.876 4.47979 14.8637 4.66936 14.793 4.84038C14.7222 5.0114 14.5971 5.15431 14.4369 5.24696" fill="white"/>
</svg>
