<svg width="18" height="14" viewBox="0 0 18 14" fill="none" xmlns="http://www.w3.org/2000/svg">
<g clip-path="url(#clip0)">
<path d="M17.2337 1.65834C16.7538 2.37222 16.165 2.98077 15.4673 3.48398C15.4742 3.61894 15.4776 3.77148 15.4776 3.9416C15.4776 4.88682 15.3398 5.83317 15.0642 6.78068C14.7886 7.72819 14.3676 8.63512 13.8012 9.50148C13.2348 10.3678 12.5601 11.1354 11.7772 11.804C10.9942 12.4727 10.053 13.0059 8.95369 13.4035C7.85433 13.8012 6.67612 14 5.41905 14C3.45718 14 1.6505 13.4704 -0.00100708 12.4111C0.292116 12.4437 0.573245 12.46 0.842381 12.46C2.48136 12.46 3.94523 11.9552 5.234 10.9456C4.46981 10.9316 3.78543 10.6963 3.18084 10.2398C2.57626 9.78337 2.1602 9.2001 1.93266 8.49001C2.15756 8.53285 2.37954 8.55427 2.59858 8.55427C2.91388 8.55427 3.22413 8.51314 3.52933 8.4309C2.7138 8.26756 2.03725 7.86138 1.49968 7.21234C0.962128 6.56331 0.693351 5.8142 0.693351 4.96502V4.92125C1.19393 5.19841 1.72787 5.34584 2.29518 5.36354C1.81206 5.04146 1.42903 4.62147 1.14607 4.10355C0.863092 3.58564 0.721603 3.02516 0.721603 2.42213C0.721603 1.78612 0.880974 1.19389 1.19972 0.645414C2.08659 1.73375 3.16122 2.60358 4.42361 3.2549C5.68602 3.90624 7.04034 4.26797 8.48658 4.3401C8.42489 4.08303 8.394 3.81477 8.39388 3.53531C8.39388 2.55955 8.73919 1.72639 9.4298 1.03583C10.1204 0.345277 10.9536 0 11.9294 0C12.951 0 13.8115 0.371985 14.5109 1.11595C15.31 0.95767 16.0582 0.671375 16.7555 0.257068C16.4869 1.10257 15.9692 1.75483 15.2025 2.21382C15.9071 2.13008 16.5842 1.94492 17.2337 1.65834H17.2337Z" fill="white"/>
</g>
<defs>
<clipPath id="clip0">
<rect width="17.2347" height="14" fill="white"/>
</clipPath>
</defs>
</svg>
